<?xml version="1.0" standalone="no"?>
<!DOCTYPE svg PUBLIC "-//W3C//DTD SVG 20010904//EN"
 "http://www.w3.org/TR/2001/REC-SVG-20010904/DTD/svg10.dtd">
<svg version="1.0" xmlns="http://www.w3.org/2000/svg"
 width="700.000000pt" height="700.000000pt" viewBox="0 0 700.000000 700.000000"
 preserveAspectRatio="xMidYMid meet">
<metadata>
Created by potrace 1.14, written by Peter Selinger 2001-2017
</metadata>
<g transform="translate(0.000000,700.000000) scale(0.100000,-0.100000)"
fill="#000000" stroke="none">
<path d="M1016 6985 c-47 -17 -91 -57 -119 -110 l-21 -40 0 -3335 c0 -3206 1
-3336 18 -3370 81 -155 288 -172 381 -31 31 46 36 72 38 221 l2 115 2185 0
2185 0 3 -130 c1 -72 7 -145 14 -164 6 -19 29 -53 53 -76 103 -103 271 -76
345 55 l25 45 0 3335 0 3335 -25 45 c-89 158 -312 156 -390 -5 -20 -42 -21
-59 -23 -397 l-2 -353 -2175 -1 c-1196 0 -2180 1 -2186 4 -8 2 -11 102 -12
350 0 390 -1 397 -72 463 -59 55 -146 72 -224 44z m4672 -1950 c0 -489 -3
-654 -11 -657 -7 -3 -991 -4 -2187 -4 l-2175 1 -1 656 -1 656 2187 0 2188 1 0
-653z m0 -1754 l1 -656 -2182 1 c-1200 1 -2185 2 -2188 3 -7 1 -10 1291 -3
1302 2 3 986 6 2188 6 l2184 0 0 -656z m-2 -1749 l-1 -657 -2185 0 -2185 0 -1
657 -1 656 2187 1 2187 0 -1 -657z"/>
</g>
</svg>
